<svg xmlns="http://www.w3.org/2000/svg" width="1600" height="600" viewBox="0 0 1600 600">
  <defs>
    <linearGradient id="g" x1="0" y1="0" x2="1" y2="1">
      <stop offset="0" stop-color="#ffffff" stop-opacity="0.12"/>
      <stop offset="1" stop-color="#ffffff" stop-opacity="0.02"/>
    </linearGradient>
    <pattern id="p" width="56" height="56" patternUnits="userSpaceOnUse">
      <path d="M0 56V0H56" fill="none" stroke="#ffffff" stroke-opacity="0.08" stroke-width="1"/>
      <path d="M0 28H56M28 0V56" fill="none" stroke="#ffffff" stroke-opacity="0.06" stroke-width="1"/>
    </pattern>
  </defs>
  <rect width="1600" height="600" fill="#000"/>
  <rect width="1600" height="600" fill="url(#p)"/>
  <rect x="0" y="0" width="1600" height="600" fill="url(#g)"/>
  <g opacity="0.9">
    <rect x="84" y="92" width="520" height="68" rx="14" fill="#ffffff" fill-opacity="0.06" stroke="#ffffff" stroke-opacity="0.14"/>
    <rect x="84" y="176" width="720" height="30" rx="12" fill="#ffffff" fill-opacity="0.04" stroke="#ffffff" stroke-opacity="0.12"/>
    <rect x="84" y="222" width="640" height="30" rx="12" fill="#ffffff" fill-opacity="0.03" stroke="#ffffff" stroke-opacity="0.10"/>
  </g>
  <g transform="translate(1200 140)" opacity="0.9">
    <rect x="0" y="0" width="316" height="316" rx="28" fill="#ffffff" fill-opacity="0.03" stroke="#ffffff" stroke-opacity="0.14"/>
    <path d="M70 158h176" stroke="#ffffff" stroke-opacity="0.22" stroke-width="2" stroke-linecap="round"/>
    <path d="M158 70v176" stroke="#ffffff" stroke-opacity="0.22" stroke-width="2" stroke-linecap="round"/>
    <rect x="118" y="118" width="80" height="80" rx="14" fill="#ffffff" fill-opacity="0.10" stroke="#ffffff" stroke-opacity="0.18"/>
  </g>
  <text x="88" y="146" font-family="ui-sans-serif,system-ui,Segoe UI,Roboto,Helvetica,Arial" font-size="40" fill="#fff" fill-opacity="0.88" letter-spacing="6">PATHWORKS</text>
  <text x="88" y="206" font-family="ui-monospace,SFMono-Regular,Consolas,monospace" font-size="14" fill="#fff" fill-opacity="0.62" letter-spacing="3">BANNER PLACEHOLDER</text>
</svg>
